# xmcd
#
# Track frame offsets: 
#        150
#        15839
#        32415
#        50878
#        74844
#        91818
#        102590
#        119165
#        132539
#        149846
#        170493
#        183983
#        197417
#        217796
#
# Disc length: 4244 seconds
#
# Revision: 0
# Processed by: cddbd v1.5.2PL0 Copyright (c) Steve Scherf et al.
# Submitted via: ExactAudioCopy v0.99pb4
#
DISCID=d310920e
DTITLE=Christopher Lee - Revelation
DYEAR=2006
DGENRE=Vocal
TTITLE0=The Impossible Dream (The Quest)
TTITLE1=I, Don Quixote (Man of La Mancha)
TTITLE2=Carmencita
TTITLE3=The Toreador March
TTITLE4=O Sole Mio (It's Now or Never)
TTITLE5=High Noon
TTITLE6=Wanderin' Star
TTITLE7=Oh! What a Beautiful Mornin'
TTITLE8=Name Your Poison
TTITLE9=The Toreador March (Metal Mix)
TTITLE10=The Little Drummer Boy
TTITLE11=Silent Night
TTITLE12=My Way
TTITLE13="Behind the Music" with Christopher Lee
EXTD=
EXTT0=
EXTT1=
EXTT2=
EXTT3=
EXTT4=
EXTT5=
EXTT6=
EXTT7=
EXTT8=
EXTT9=
EXTT10=
EXTT11=
EXTT12=
EXTT13=
PLAYORDER=
